<?xml version="1.0" encoding="UTF-8" standalone="no"?>
<!-- Created with Inkscape (http://www.inkscape.org/) -->

<svg
   width="1000mm"
   height="1000mm"
   viewBox="0 0 1000 1000"
   version="1.1"
   id="svg1"
   xml:space="preserve"
   inkscape:version="1.4 (86a8ad7, 2024-10-11)"
   sodipodi:docname="Pluvia_BW_BG.svg"
   xmlns:inkscape="http://www.inkscape.org/namespaces/inkscape"
   xmlns:sodipodi="http://sodipodi.sourceforge.net/DTD/sodipodi-0.dtd"
   xmlns="http://www.w3.org/2000/svg"
   xmlns:svg="http://www.w3.org/2000/svg"><sodipodi:namedview
     id="namedview1"
     pagecolor="#ffffff"
     bordercolor="#000000"
     borderopacity="0.25"
     inkscape:showpageshadow="2"
     inkscape:pageopacity="0.0"
     inkscape:pagecheckerboard="0"
     inkscape:deskcolor="#d1d1d1"
     inkscape:document-units="mm"
     showgrid="true"
     inkscape:zoom="0.0625"
     inkscape:cx="-632"
     inkscape:cy="2584"
     inkscape:window-width="1366"
     inkscape:window-height="745"
     inkscape:window-x="-8"
     inkscape:window-y="-8"
     inkscape:window-maximized="1"
     inkscape:current-layer="layer2" /><defs
     id="defs1" /><g
     inkscape:groupmode="layer"
     id="layer2"
     inkscape:label="BG"><rect
       style="fill:#111111;fill-opacity:1;stroke-width:0.264583"
       id="rect3"
       width="1000"
       height="1000"
       x="0"
       y="0" /></g><g
     inkscape:label="LOGO"
     inkscape:groupmode="layer"
     id="layer1"><path
       style="fill:#ffffff"
       d="m 483.11876,751.74769 c -34.3565,-3.31376 -68.62425,-18.21161 -95.48647,-41.51259 -20.48707,-17.77101 -39.06034,-44.85701 -48.16734,-70.24399 -1.33535,-3.72248 -2.42791,-6.94779 -2.42791,-7.16736 0,-0.21958 2.01757,0.8422 4.48349,2.35949 8.56204,5.26828 22.36718,11.21942 31.25806,13.47478 24.29213,6.16221 48.54486,0.30894 76.75845,-18.52524 5.60185,-3.73956 22.46615,-16.65664 37.47622,-28.70463 30.21393,-24.25152 42.25082,-32.72166 56.0423,-39.43593 32.13753,-15.6459 60.05177,-12.94847 93.98148,9.0817 7.86785,5.10851 27.31456,19.62939 31.2545,23.33777 2.35767,2.21911 2.34664,2.48629 -0.81937,19.84752 -9.27121,50.83994 -43.75125,96.2627 -91.08328,119.98983 -29.54709,14.8117 -60.64276,20.64564 -93.27013,17.49865 z M 381.01852,628.60264 c -7.8845,-1.13702 -17.26421,-4.10719 -26.38889,-8.35627 -9.4401,-4.39595 -22.86444,-12.69301 -23.72576,-14.66395 -1.22743,-2.80871 -1.50373,-36.23165 -0.3854,-46.61946 8.9348,-82.9922 61.19639,-183.69265 155.4203,-299.47222 9.81279,-12.05767 11.86685,-14.12037 14.06123,-14.12037 2.19438,0 4.24844,2.0627 14.06123,14.12037 85.04373,104.49923 136.66034,198.12785 151.73262,275.23148 2.14408,10.96824 4.57652,29.79332 4.57652,35.4185 v 3.9923 l -8.56481,-6.87909 C 608.96809,524.8159 575.10181,519.71212 529.84582,547.3671 c -8.9324,5.4584 -23.58995,16.53087 -47.21538,35.66701 -11.33567,9.18166 -24.87733,19.62319 -30.09259,23.20339 -27.11091,18.61123 -49.34226,25.56331 -71.51933,22.36514 z m 29.62963,-21.07395 c 21.71084,-5.95473 37.15711,-15.42941 74.07407,-45.43675 23.04699,-18.73336 31.012,-24.8247 41.20371,-31.51104 40.33818,-26.46414 73.00242,-26.14657 113.6574,1.10502 5.72917,3.84033 10.41667,6.48934 10.41667,5.88667 0,-0.60267 -1.43135,-6.90721 -3.18078,-14.0101 C 633.73688,470.44661 601.97815,407.07074 554.27614,338.88889 536.25358,313.12872 501.84606,268.51852 500,268.51852 c -1.84606,0 -36.25358,44.6102 -54.27614,70.37037 -65.99504,94.32861 -100.41172,177.52783 -100.34085,242.56494 0.007,6.38095 0.25196,12.49361 0.54445,13.58369 0.99856,3.72151 22.30539,12.3272 36.01698,14.54702 5.55634,0.89954 22.3011,-0.29977 28.70371,-2.05585 z"
       id="path3"
       inkscape:label="Pluvia" /></g></svg>
