<?xml version="1.0" encoding="UTF-8" standalone="no"?>
<!-- Created with Inkscape (http://www.inkscape.org/) -->

<svg
   width="1000mm"
   height="1000mm"
   viewBox="0 0 1000 1000"
   version="1.1"
   id="svg1"
   xml:space="preserve"
   sodipodi:docname="Pluvia_Color_BG.svg"
   inkscape:version="1.4 (86a8ad7, 2024-10-11)"
   xmlns:inkscape="http://www.inkscape.org/namespaces/inkscape"
   xmlns:sodipodi="http://sodipodi.sourceforge.net/DTD/sodipodi-0.dtd"
   xmlns:xlink="http://www.w3.org/1999/xlink"
   xmlns="http://www.w3.org/2000/svg"
   xmlns:svg="http://www.w3.org/2000/svg"><sodipodi:namedview
     id="namedview1"
     pagecolor="#ffffff"
     bordercolor="#000000"
     borderopacity="0.25"
     inkscape:showpageshadow="2"
     inkscape:pageopacity="0.0"
     inkscape:pagecheckerboard="0"
     inkscape:deskcolor="#d1d1d1"
     inkscape:document-units="mm"
     showgrid="true"
     inkscape:zoom="0.25"
     inkscape:cx="1590"
     inkscape:cy="1758"
     inkscape:window-width="1366"
     inkscape:window-height="745"
     inkscape:window-x="-8"
     inkscape:window-y="-8"
     inkscape:window-maximized="1"
     inkscape:current-layer="layer2" /><defs
     id="defs1"><linearGradient
       id="linearGradient7"
       inkscape:collect="always"><stop
         style="stop-color:#a6b9ff;stop-opacity:1;"
         offset="0"
         id="stop7" /><stop
         style="stop-color:#4f5877;stop-opacity:1;"
         offset="1"
         id="stop8" /></linearGradient><linearGradient
       inkscape:collect="always"
       xlink:href="#linearGradient7"
       id="linearGradient6"
       x1="500"
       y1="268.51852"
       x2="500.64926"
       y2="559.02094"
       gradientUnits="userSpaceOnUse" /></defs><g
     inkscape:groupmode="layer"
     id="layer2"
     inkscape:label="BG"><rect
       style="fill:#111111;fill-opacity:1;stroke-width:0.264583"
       id="rect3"
       width="1000"
       height="1000"
       x="0"
       y="0" /></g><g
     inkscape:label="LOGO"
     inkscape:groupmode="layer"
     id="layer1"><path
       d="m 499.99997,268.51849 c -1.84606,0 -36.25371,44.61022 -54.27627,70.37039 -65.99504,94.32861 -100.41152,177.52792 -100.34065,242.56503 0.007,6.38095 0.25167,12.49359 0.54416,13.58367 0.99856,3.72151 22.30585,12.3271 36.01744,14.54692 5.55634,0.89954 22.30106,-0.29961 28.70367,-2.05569 21.71084,-5.95473 37.15707,-15.42968 74.07403,-45.43702 23.04699,-18.73336 31.01198,-24.8244 41.20369,-31.51074 40.33818,-26.46414 73.00216,-26.14675 113.65714,1.10484 5.72917,3.84033 10.41694,6.48914 10.41694,5.88647 0,-0.60267 -1.43126,-6.90711 -3.18069,-14.01 -13.08234,-53.11588 -44.84117,-116.49163 -92.54318,-184.67348 -18.02256,-25.76017 -52.43022,-70.37039 -54.27628,-70.37039 z"
       style="baseline-shift:baseline;display:inline;overflow:visible;vector-effect:none;fill:url(#linearGradient6);enable-background:accumulate;stop-color:#000000;stop-opacity:1"
       id="path9"
       inkscape:label="Color" /><path
       d="m 499.99997,245.37055 c -2.19438,0 -4.24837,2.0624 -14.06116,14.12007 -94.22391,115.77957 -146.48568,216.47996 -155.42048,299.47216 -1.11833,10.38781 -0.84193,43.81118 0.3855,46.61989 0.86132,1.97094 14.28559,10.26776 23.72569,14.66371 9.12468,4.24908 18.50458,7.21906 26.38908,8.35608 22.17707,3.19817 44.40824,-3.75382 71.51915,-22.36505 5.21526,-3.5802 18.75707,-14.02157 30.09274,-23.20323 23.62543,-19.13614 38.2828,-30.20867 47.2152,-35.66707 45.25599,-27.65498 79.12244,-22.55139 131.95991,19.88664 l 8.56485,6.87916 v -3.992 c 0,-5.62518 -2.43238,-24.45027 -4.57646,-35.41851 -15.07228,-77.10363 -66.68913,-170.73255 -151.73286,-275.23178 -9.81279,-12.05767 -11.86678,-14.12007 -14.06116,-14.12007 z m 0,23.14794 c 1.84606,0 36.25372,44.61022 54.27628,70.37039 47.70201,68.18185 79.46084,131.5576 92.54318,184.67348 1.74943,7.10289 3.18069,13.40733 3.18069,14.01 0,0.60267 -4.68777,-2.04614 -10.41694,-5.88647 -40.65498,-27.25159 -73.31896,-27.56898 -113.65714,-1.10484 -10.19171,6.68634 -18.1567,12.77738 -41.20369,31.51074 -36.91696,30.00734 -52.36319,39.48229 -74.07403,45.43702 -6.40261,1.75608 -23.14733,2.95523 -28.70367,2.05569 -13.71159,-2.21982 -35.01888,-10.82541 -36.01744,-14.54692 -0.29249,-1.09008 -0.53716,-7.20272 -0.54416,-13.58367 -0.0709,-65.03711 34.34561,-148.23642 100.34065,-242.56503 18.02256,-25.76017 52.43021,-70.37039 54.27627,-70.37039 z m 83.66828,283.55427 c -13.30084,-0.25983 -26.55234,3.07421 -40.61251,9.91929 -13.79148,6.71427 -25.82864,15.18484 -56.04257,39.43636 -15.01007,12.04799 -31.87442,24.96463 -37.47627,28.70419 -28.21359,18.83418 -52.46597,24.68769 -76.7581,18.52548 -8.89088,-2.25536 -22.696,-8.20635 -31.25804,-13.47463 -2.46592,-1.51729 -4.48397,-2.57912 -4.48397,-2.35954 0,0.21957 1.09293,3.44452 2.42828,7.167 9.107,25.38698 27.68001,52.47328 48.16708,70.24429 26.86222,23.30098 61.13018,38.19895 95.48668,41.51271 32.62737,3.14699 63.72319,-2.68697 93.27028,-17.49867 47.33203,-23.72713 81.8116,-69.15015 91.08281,-119.99009 3.16601,-17.36123 3.17726,-17.62826 0.81959,-19.84737 -3.93994,-3.70838 -23.38658,-18.2296 -31.25443,-23.33811 -19.08546,-12.39197 -36.26775,-18.66684 -53.36883,-19.00091 z"
       style="baseline-shift:baseline;display:inline;overflow:visible;vector-effect:none;fill:#ffffff;enable-background:accumulate;stop-color:#000000;stop-opacity:1"
       id="path8"
       inkscape:label="Pluvia" /></g></svg>
